<svg width="509" height="336" viewBox="0 0 509 336" fill="none" xmlns="http://www.w3.org/2000/svg">
<path d="M196.25 13V48H188.15V33.65H172.25V48H164.15V13H172.25V26.8H188.15V13H196.25ZM227.581 40.5H211.331L208.231 48H199.931L215.531 13H223.531L239.181 48H230.681L227.581 40.5ZM225.031 34.35L219.481 20.95L213.931 34.35H225.031ZM259.074 48.6C255.507 48.6 252.274 47.8333 249.374 46.3C246.507 44.7333 244.24 42.5833 242.574 39.85C240.94 37.0833 240.124 33.9667 240.124 30.5C240.124 27.0333 240.94 23.9333 242.574 21.2C244.24 18.4333 246.507 16.2833 249.374 14.75C252.274 13.1833 255.524 12.4 259.124 12.4C262.157 12.4 264.89 12.9333 267.324 14C269.79 15.0667 271.857 16.6 273.524 18.6L268.324 23.4C265.957 20.6667 263.024 19.3 259.524 19.3C257.357 19.3 255.424 19.7833 253.724 20.75C252.024 21.6833 250.69 23 249.724 24.7C248.79 26.4 248.324 28.3333 248.324 30.5C248.324 32.6667 248.79 34.6 249.724 36.3C250.69 38 252.024 39.3333 253.724 40.3C255.424 41.2333 257.357 41.7 259.524 41.7C263.024 41.7 265.957 40.3167 268.324 37.55L273.524 42.35C271.857 44.3833 269.79 45.9333 267.324 47C264.857 48.0667 262.107 48.6 259.074 48.6ZM291.744 34.25L287.044 39.15V48H278.994V13H287.044V29.35L302.544 13H311.544L297.044 28.6L312.394 48H302.944L291.744 34.25Z" fill="white"/>
<path d="M76.75 274.5C63.75 274.5 51.25 272.417 39.25 268.25C27.4167 264.083 18.25 258.583 11.75 251.75L19 237.5C25.3333 243.833 33.75 249 44.25 253C54.75 256.833 65.5833 258.75 76.75 258.75C92.4167 258.75 104.167 255.917 112 250.25C119.833 244.417 123.75 236.917 123.75 227.75C123.75 220.75 121.583 215.167 117.25 211C113.083 206.833 107.917 203.667 101.75 201.5C95.5833 199.167 87 196.667 76 194C62.8333 190.667 52.3333 187.5 44.5 184.5C36.6667 181.333 29.9167 176.583 24.25 170.25C18.75 163.917 16 155.333 16 144.5C16 135.667 18.3333 127.667 23 120.5C27.6667 113.167 34.8333 107.333 44.5 103C54.1667 98.6667 66.1667 96.5 80.5 96.5C90.5 96.5 100.25 97.9167 109.75 100.75C119.417 103.417 127.75 107.167 134.75 112L128.5 126.75C121.167 121.917 113.333 118.333 105 116C96.6667 113.5 88.5 112.25 80.5 112.25C65.1667 112.25 53.5833 115.25 45.75 121.25C38.0833 127.083 34.25 134.667 34.25 144C34.25 151 36.3333 156.667 40.5 161C44.8333 165.167 50.1667 168.417 56.5 170.75C63 172.917 71.6667 175.333 82.5 178C95.3333 181.167 105.667 184.333 113.5 187.5C121.5 190.5 128.25 195.167 133.75 201.5C139.25 207.667 142 216.083 142 226.75C142 235.583 139.583 243.667 134.75 251C130.083 258.167 122.833 263.917 113 268.25C103.167 272.417 91.0833 274.5 76.75 274.5ZM238.867 114H177.367V98H318.867V114H257.367V273H238.867V114Z" fill="white"/>
<path d="M509 237.639L508.851 268.111L473.142 277.277L473.295 241.716L509 237.639ZM499.807 259.499V252.433L485.263 254.519L485.089 262.768L499.807 259.499Z" fill="white"/>
<path d="M355 92.2157L441.525 126.764L452.469 242.181H469.891V278.119H362.845L355 101.039V92.2157ZM417.446 263.577H425.022V255.403H417.446V263.577ZM406.946 263.577H414.522V255.403H406.946V263.577ZM375.874 263.577H403.646V255.403H375.874V263.577ZM377.894 241.235L446.765 242.181L441.525 126.764L371.255 103.49L375.874 172.608L377.894 241.235Z" fill="white"/>
</svg>
