<svg id="svg" xmlns="http://www.w3.org/2000/svg" xmlns:xlink="http://www.w3.org/1999/xlink" width="400" height="400" viewBox="0, 0, 400,400"><g id="svgg"><path id="path6" d="M177.197 145.185 L 177.222 147.593 180.094 147.618 L 182.965 147.643 180.203 147.510 L 177.441 147.377 177.306 145.077 L 177.172 142.778 177.197 145.185 M186.079 149.074 C 186.079 152.741,186.135 154.191,186.202 152.296 C 186.269 150.402,186.269 147.402,186.201 145.629 C 186.134 143.857,186.079 145.407,186.079 149.074 M177.162 152.963 C 177.162 154.491,177.227 155.116,177.307 154.352 C 177.387 153.588,177.387 152.338,177.307 151.574 C 177.227 150.810,177.162 151.435,177.162 152.963 M142.504 179.521 C 142.965 179.610,143.632 179.606,143.986 179.514 C 144.340 179.421,143.963 179.349,143.148 179.353 C 142.333 179.357,142.044 179.433,142.504 179.521 M266.394 227.303 C 266.957 227.388,267.790 227.386,268.246 227.298 C 268.701 227.210,268.241 227.140,267.222 227.143 C 266.204 227.146,265.831 227.218,266.394 227.303 M298.234 232.593 C 298.234 233.306,298.310 233.597,298.403 233.241 C 298.497 232.884,298.497 232.301,298.403 231.944 C 298.310 231.588,298.234 231.880,298.234 232.593 M141.023 233.595 C 141.484 233.684,142.150 233.681,142.504 233.588 C 142.858 233.495,142.481 233.423,141.667 233.427 C 140.852 233.431,140.562 233.507,141.023 233.595 " stroke="none" fill="#fc9c3c" fill-rule="evenodd"></path><path id="path0" d="M0.000 200.000 L 0.000 400.000 200.000 400.000 L 400.000 400.000 400.000 200.000 L 400.000 0.000 200.000 0.000 L 0.000 0.000 0.000 200.000 M212.128 142.792 C 214.657 143.848,214.994 144.402,213.841 145.606 L 212.852 146.638 211.832 145.912 C 209.100 143.966,205.556 145.752,205.556 149.074 C 205.556 152.396,209.343 154.275,211.933 152.238 L 212.855 151.513 213.842 152.544 C 216.070 154.869,209.942 156.977,206.068 155.217 C 197.885 151.501,203.825 139.323,212.128 142.792 M177.407 145.000 L 177.407 147.407 180.185 147.407 L 182.963 147.407 182.963 145.000 L 182.963 142.593 184.630 142.593 L 186.296 142.593 186.296 149.074 L 186.296 155.556 184.630 155.556 L 182.963 155.556 182.963 152.963 L 182.963 150.370 180.185 150.370 L 177.407 150.370 177.407 152.963 L 177.407 155.556 175.741 155.556 L 174.074 155.556 174.074 149.074 L 174.074 142.593 175.741 142.593 L 177.407 142.593 177.407 145.000 M198.886 148.428 C 202.349 156.110,202.244 155.556,200.234 155.556 C 198.664 155.556,198.539 155.479,198.098 154.259 L 197.629 152.963 194.630 152.963 L 191.630 152.963 191.162 154.259 C 190.722 155.475,190.591 155.556,189.050 155.556 C 187.040 155.556,186.999 156.029,189.489 150.425 C 190.634 147.849,191.882 145.023,192.262 144.146 C 192.947 142.568,192.972 142.553,194.647 142.665 L 196.339 142.778 198.886 148.428 M219.636 145.463 L 219.641 148.333 222.459 145.463 C 225.243 142.627,225.299 142.593,227.164 142.593 L 229.051 142.593 227.012 144.722 C 223.132 148.773,223.193 147.985,226.445 152.027 L 229.283 155.556 227.299 155.556 L 225.315 155.556 223.347 153.131 L 221.380 150.707 220.505 151.529 C 219.846 152.148,219.630 152.748,219.630 153.953 L 219.630 155.556 218.148 155.556 L 216.667 155.556 216.667 149.074 L 216.667 142.593 218.148 142.593 L 219.630 142.593 219.636 145.463 M193.994 147.501 C 192.749 150.585,192.703 150.370,194.615 150.370 C 196.544 150.370,196.539 150.393,195.224 147.317 L 194.630 145.927 193.994 147.501 M260.883 178.148 C 269.360 181.509,276.295 184.371,276.296 184.508 C 276.296 184.645,270.630 182.866,263.704 180.556 L 251.111 176.354 251.112 177.344 C 251.112 177.888,251.447 183.167,251.855 189.074 C 252.564 199.318,253.312 216.934,253.326 223.741 L 253.333 226.926 265.833 227.131 C 272.708 227.243,278.398 227.273,278.478 227.196 C 278.604 227.074,277.320 195.766,276.877 188.148 C 276.439 180.635,277.552 189.838,279.070 206.296 C 279.982 216.176,280.824 224.968,280.942 225.833 L 281.156 227.407 284.282 227.407 L 287.407 227.407 287.407 234.259 L 287.407 241.111 267.581 241.111 C 252.042 241.111,247.724 241.011,247.614 240.648 C 246.997 238.617,244.592 171.706,245.143 171.914 C 245.324 171.981,252.407 174.787,260.883 178.148 M148.890 173.847 C 154.309 174.727,163.333 178.083,163.333 179.219 C 163.333 179.815,161.125 184.629,160.855 184.622 C 160.690 184.617,159.389 184.012,157.963 183.276 C 143.357 175.744,126.287 179.968,126.308 191.111 C 126.319 197.078,129.503 199.675,140.377 202.587 C 155.305 206.584,158.464 207.847,161.828 211.158 C 167.667 216.906,167.272 227.909,161.026 233.525 C 154.179 239.681,140.927 241.352,128.889 237.578 C 123.652 235.937,117.778 232.399,117.778 230.887 C 117.778 230.453,119.787 226.077,120.197 225.618 C 120.258 225.551,121.235 226.251,122.369 227.175 C 135.272 237.685,158.838 234.540,158.881 222.303 C 158.903 216.007,155.650 213.552,142.778 210.151 C 123.389 205.028,118.914 201.302,119.321 190.616 C 119.785 178.404,132.510 171.188,148.890 173.847 M231.481 177.037 L 231.481 180.000 220.185 180.000 L 208.889 180.000 208.889 209.444 L 208.889 238.889 205.185 238.889 L 201.481 238.889 201.481 209.444 L 201.481 180.000 190.185 180.000 L 178.889 180.000 178.889 177.037 L 178.889 174.074 205.185 174.074 L 231.481 174.074 231.481 177.037 M301.850 231.389 L 301.849 237.222 295.184 238.930 L 288.519 240.637 288.519 233.837 C 288.519 227.038,288.519 227.037,289.352 227.016 C 290.000 227.000,300.288 225.808,301.574 225.600 C 301.727 225.576,301.851 228.181,301.850 231.389 M295.926 231.728 C 293.414 232.124,293.333 232.180,293.333 233.542 L 293.333 234.848 294.722 234.589 C 297.747 234.023,297.957 233.902,298.079 232.661 C 298.202 231.414,298.126 231.382,295.926 231.728 M252.593 233.889 L 252.593 235.185 257.593 235.185 L 262.593 235.185 262.593 233.889 L 262.593 232.593 257.593 232.593 L 252.593 232.593 252.593 233.889 M264.074 233.889 C 264.074 235.123,264.136 235.185,265.370 235.185 C 266.605 235.185,266.667 235.123,266.667 233.889 C 266.667 232.654,266.605 232.593,265.370 232.593 C 264.136 232.593,264.074 232.654,264.074 233.889 M268.148 233.889 C 268.148 235.123,268.210 235.185,269.444 235.185 C 270.679 235.185,270.741 235.123,270.741 233.889 C 270.741 232.654,270.679 232.593,269.444 232.593 C 268.210 232.593,268.148 232.654,268.148 233.889 " stroke="none" fill="#fc7c04" fill-rule="evenodd"></path><path id="path1" d="M174.074 149.074 L 174.074 155.556 175.556 155.556 L 177.037 155.556 177.037 152.778 L 177.037 150.000 180.000 150.000 L 182.963 150.000 182.963 152.778 L 182.963 155.556 184.444 155.556 L 185.926 155.556 185.926 149.074 L 185.926 142.593 184.444 142.593 L 182.963 142.593 182.963 145.185 L 182.963 147.778 180.000 147.778 L 177.037 147.778 177.037 145.185 L 177.037 142.593 175.556 142.593 L 174.074 142.593 174.074 149.074 M192.995 143.273 C 192.795 143.648,191.972 145.439,191.167 147.255 C 190.362 149.070,189.194 151.681,188.571 153.056 L 187.438 155.556 188.907 155.556 C 190.275 155.556,190.417 155.454,190.969 154.074 L 191.562 152.593 194.614 152.593 L 197.665 152.593 198.247 154.074 C 198.793 155.464,198.922 155.556,200.336 155.556 L 201.843 155.556 200.901 153.426 C 200.383 152.255,199.094 149.341,198.035 146.951 L 196.111 142.606 194.735 142.599 C 193.774 142.595,193.250 142.798,192.995 143.273 M206.093 143.114 C 201.621 145.061,201.146 151.515,205.250 154.555 C 207.128 155.945,211.641 155.855,213.504 154.390 L 214.490 153.614 213.688 152.762 L 212.887 151.909 211.721 152.620 C 209.590 153.919,206.836 153.229,205.747 151.123 C 203.715 147.193,207.949 143.228,211.721 145.528 C 212.886 146.239,212.888 146.238,213.672 145.405 C 215.539 143.417,209.551 141.607,206.093 143.114 M216.667 149.074 L 216.667 155.556 218.148 155.556 L 219.630 155.556 219.630 153.768 C 219.630 152.370,219.819 151.803,220.502 151.161 L 221.375 150.342 223.481 152.949 C 225.525 155.479,225.637 155.556,227.253 155.556 L 228.918 155.556 226.589 152.580 C 225.307 150.944,224.056 149.315,223.807 148.961 C 223.417 148.405,223.713 147.926,225.967 145.455 L 228.578 142.593 227.018 142.593 C 225.545 142.593,225.296 142.763,222.561 145.648 L 219.664 148.704 219.647 145.648 L 219.630 142.593 218.148 142.593 L 216.667 142.593 216.667 149.074 M196.455 149.907 C 196.705 150.703,196.623 150.741,194.655 150.741 C 192.254 150.741,192.300 150.869,193.598 147.811 L 194.606 145.436 195.400 147.255 C 195.837 148.256,196.311 149.449,196.455 149.907 M244.817 173.056 C 244.818 173.514,245.484 188.802,246.298 207.028 C 247.112 225.255,247.778 240.297,247.778 240.454 C 247.778 240.612,256.694 240.741,267.593 240.741 L 287.407 240.741 287.407 234.074 L 287.407 227.407 284.074 227.407 C 280.869 227.407,280.740 227.375,280.723 226.574 C 280.681 224.525,277.486 193.309,277.454 194.630 C 277.434 195.444,277.746 203.028,278.148 211.481 C 278.550 219.935,278.881 226.989,278.884 227.156 C 278.890 227.538,253.867 227.325,253.482 226.939 C 253.327 226.784,253.056 221.451,252.879 215.088 C 252.703 208.725,252.158 197.441,251.668 190.013 C 251.178 182.585,250.861 176.423,250.964 176.320 C 251.067 176.217,255.507 177.583,260.831 179.354 C 266.155 181.126,270.559 182.527,270.619 182.467 C 270.742 182.345,245.518 172.222,245.090 172.222 C 244.939 172.222,244.816 172.597,244.817 173.056 M135.741 174.235 C 124.974 176.358,118.473 183.731,119.400 192.770 C 120.319 201.731,125.215 205.425,141.700 209.593 C 157.359 213.551,162.265 218.597,158.200 226.564 C 153.544 235.692,132.266 236.084,121.958 227.231 L 120.397 225.891 119.091 228.485 L 117.784 231.080 119.459 232.484 C 128.033 239.675,146.321 241.519,156.766 236.246 C 166.301 231.433,168.956 218.506,161.847 211.506 C 158.414 208.126,154.901 206.664,142.222 203.340 C 129.828 200.090,125.942 197.255,125.930 191.456 C 125.905 179.948,142.645 175.447,157.778 182.893 C 159.306 183.644,160.660 184.308,160.788 184.367 C 161.016 184.474,162.963 179.933,162.963 179.294 C 162.963 178.686,156.875 175.958,153.333 174.979 C 148.957 173.771,140.014 173.392,135.741 174.235 M179.259 177.037 L 179.259 180.000 190.556 180.000 L 201.852 180.000 201.852 209.444 L 201.852 238.889 205.185 238.889 L 208.519 238.889 208.519 209.444 L 208.519 180.000 220.000 180.000 L 231.481 180.000 231.481 177.037 L 231.481 174.074 205.370 174.074 L 179.259 174.074 179.259 177.037 M294.630 226.691 C 291.574 227.062,288.949 227.375,288.796 227.387 C 288.644 227.398,288.519 230.335,288.519 233.914 C 288.519 239.937,288.567 240.406,289.167 240.227 C 289.523 240.121,291.898 239.517,294.444 238.886 C 296.991 238.255,299.699 237.574,300.463 237.373 L 301.852 237.008 301.852 231.467 C 301.852 225.954,301.848 225.926,301.019 225.971 C 300.560 225.996,297.685 226.319,294.630 226.691 M298.519 232.534 L 298.519 233.956 296.389 234.412 C 295.218 234.662,293.968 234.950,293.611 235.051 C 293.063 235.207,292.963 234.980,292.963 233.587 L 292.963 231.938 295.463 231.575 C 296.838 231.375,298.088 231.189,298.241 231.161 C 298.394 231.134,298.519 231.751,298.519 232.534 M262.963 233.889 L 262.963 235.556 257.778 235.556 L 252.593 235.556 252.593 233.889 L 252.593 232.222 257.778 232.222 L 262.963 232.222 262.963 233.889 M267.037 233.889 L 267.037 235.556 265.556 235.556 L 264.074 235.556 264.074 233.889 L 264.074 232.222 265.556 232.222 L 267.037 232.222 267.037 233.889 M270.741 233.889 L 270.741 235.556 269.259 235.556 L 267.778 235.556 267.778 233.889 L 267.778 232.222 269.259 232.222 L 270.741 232.222 270.741 233.889 " stroke="none" fill="#fcfaf9" fill-rule="evenodd"></path><path id="path2" d="M193.251 152.864 C 194.122 152.942,195.455 152.941,196.213 152.862 C 196.972 152.782,196.259 152.718,194.630 152.720 C 193.000 152.721,192.379 152.786,193.251 152.864 M142.130 173.595 C 142.588 173.683,143.338 173.683,143.796 173.595 C 144.255 173.506,143.880 173.434,142.963 173.434 C 142.046 173.434,141.671 173.506,142.130 173.595 M259.727 227.303 C 260.290 227.388,261.124 227.386,261.579 227.298 C 262.035 227.210,261.574 227.140,260.556 227.143 C 259.537 227.146,259.164 227.218,259.727 227.303 M266.760 233.889 C 266.764 234.704,266.840 234.993,266.929 234.533 C 267.017 234.072,267.014 233.405,266.921 233.051 C 266.828 232.697,266.756 233.074,266.760 233.889 M267.871 233.889 C 267.875 234.704,267.951 234.993,268.040 234.533 C 268.128 234.072,268.125 233.405,268.032 233.051 C 267.940 232.697,267.867 233.074,267.871 233.889 M141.019 239.521 C 141.477 239.609,142.227 239.609,142.685 239.521 C 143.144 239.432,142.769 239.360,141.852 239.360 C 140.935 239.360,140.560 239.432,141.019 239.521 " stroke="none" fill="#fcbc7c" fill-rule="evenodd"></path><path id="path3" d="M208.695 209.444 C 208.695 225.741,208.741 232.353,208.796 224.139 C 208.852 215.925,208.852 202.591,208.796 194.509 C 208.740 186.427,208.695 193.148,208.695 209.444 M263.061 227.303 C 263.624 227.388,264.457 227.386,264.912 227.298 C 265.368 227.210,264.907 227.140,263.889 227.143 C 262.870 227.146,262.498 227.218,263.061 227.303 M257.592 232.494 L 262.593 232.613 262.593 233.889 L 262.593 235.164 257.685 235.283 L 252.778 235.402 257.778 235.386 L 262.778 235.370 262.778 233.889 L 262.778 232.407 257.685 232.391 L 252.592 232.375 257.592 232.494 M264.727 232.484 C 265.187 232.573,265.854 232.569,266.208 232.477 C 266.562 232.384,266.185 232.312,265.370 232.316 C 264.556 232.320,264.266 232.396,264.727 232.484 M268.801 232.484 C 269.261 232.573,269.928 232.569,270.282 232.477 C 270.636 232.384,270.259 232.312,269.444 232.316 C 268.630 232.320,268.340 232.396,268.801 232.484 M264.727 235.447 C 265.187 235.536,265.854 235.532,266.208 235.440 C 266.562 235.347,266.185 235.274,265.370 235.279 C 264.556 235.283,264.266 235.359,264.727 235.447 M268.801 235.447 C 269.261 235.536,269.928 235.532,270.282 235.440 C 270.636 235.347,270.259 235.274,269.444 235.279 C 268.630 235.283,268.340 235.359,268.801 235.447 " stroke="none" fill="#fca95b" fill-rule="evenodd"></path><path id="path4" d="M178.426 150.271 C 179.292 150.349,180.708 150.349,181.574 150.271 C 182.440 150.193,181.731 150.129,180.000 150.129 C 178.269 150.129,177.560 150.193,178.426 150.271 M193.618 150.639 C 194.283 150.721,195.283 150.720,195.840 150.635 C 196.397 150.551,195.852 150.483,194.630 150.485 C 193.407 150.487,192.952 150.556,193.618 150.639 M179.018 177.037 C 179.018 178.769,179.082 179.477,179.160 178.611 C 179.238 177.745,179.238 176.329,179.160 175.463 C 179.082 174.597,179.018 175.306,179.018 177.037 M256.394 227.303 C 256.957 227.388,257.790 227.386,258.246 227.298 C 258.701 227.210,258.241 227.140,257.222 227.143 C 256.204 227.146,255.831 227.218,256.394 227.303 " stroke="none" fill="#fcbc84" fill-rule="evenodd"></path><path id="path5" d="M201.658 209.444 C 201.658 225.741,201.704 232.353,201.759 224.139 C 201.815 215.925,201.815 202.591,201.759 194.509 C 201.703 186.427,201.658 193.148,201.658 209.444 M269.727 227.303 C 270.290 227.388,271.124 227.386,271.579 227.298 C 272.035 227.210,271.574 227.140,270.556 227.143 C 269.537 227.146,269.164 227.218,269.727 227.303 M247.725 240.837 C 247.880 240.991,256.913 241.074,267.800 241.022 L 287.593 240.926 267.518 240.741 C 256.478 240.639,247.571 240.682,247.725 240.837 " stroke="none" fill="#fc8d27" fill-rule="evenodd"></path><path id="path6" d="M177.197 145.185 L 177.222 147.593 180.094 147.618 L 182.965 147.643 180.203 147.510 L 177.441 147.377 177.306 145.077 L 177.172 142.778 177.197 145.185 M186.079 149.074 C 186.079 152.741,186.135 154.191,186.202 152.296 C 186.269 150.402,186.269 147.402,186.201 145.629 C 186.134 143.857,186.079 145.407,186.079 149.074 M177.162 152.963 C 177.162 154.491,177.227 155.116,177.307 154.352 C 177.387 153.588,177.387 152.338,177.307 151.574 C 177.227 150.810,177.162 151.435,177.162 152.963 M142.504 179.521 C 142.965 179.610,143.632 179.606,143.986 179.514 C 144.340 179.421,143.963 179.349,143.148 179.353 C 142.333 179.357,142.044 179.433,142.504 179.521 M266.394 227.303 C 266.957 227.388,267.790 227.386,268.246 227.298 C 268.701 227.210,268.241 227.140,267.222 227.143 C 266.204 227.146,265.831 227.218,266.394 227.303 M298.234 232.593 C 298.234 233.306,298.310 233.597,298.403 233.241 C 298.497 232.884,298.497 232.301,298.403 231.944 C 298.310 231.588,298.234 231.880,298.234 232.593 M141.023 233.595 C 141.484 233.684,142.150 233.681,142.504 233.588 C 142.858 233.495,142.481 233.423,141.667 233.427 C 140.852 233.431,140.562 233.507,141.023 233.595 " stroke="none" fill="#fc9c3c" fill-rule="evenodd"></path></g></svg>